<svg id="visual" viewBox="0 0 900 600" width="900" height="600" xmlns="http://www.w3.org/2000/svg" xmlns:xlink="http://www.w3.org/1999/xlink" version="1.1"><rect x="0" y="0" width="900" height="600" fill="#E3E2DF"></rect><path d="M646 600L662 585.7C678 571.3 710 542.7 709.5 514.2C709 485.7 676 457.3 648.3 428.8C620.7 400.3 598.3 371.7 612.3 343C626.3 314.3 676.7 285.7 677 257C677.3 228.3 627.7 199.7 624.8 171.2C622 142.7 666 114.3 701 85.8C736 57.3 762 28.7 775 14.3L788 0L900 0L900 14.3C900 28.7 900 57.3 900 85.8C900 114.3 900 142.7 900 171.2C900 199.7 900 228.3 900 257C900 285.7 900 314.3 900 343C900 371.7 900 400.3 900 428.8C900 457.3 900 485.7 900 514.2C900 542.7 900 571.3 900 585.7L900 600Z" fill="#0066FF" stroke-linecap="round" stroke-linejoin="miter"></path></svg>