<svg xmlns="http://www.w3.org/2000/svg" data-name="Layer 1" viewBox="0 0 512 512" id="surveillance"><polygon fill="#fedb41" points="481.91 68.8 481.91 173.29 416.45 173.29 183.56 173.29 166.16 139.41 129.9 68.8 481.91 68.8"></polygon><polygon fill="#00efd1" points="480.84 261.29 480.84 443.2 448.64 443.2 448.64 369 448.64 336 448.64 261.29 480.84 261.29"></polygon><polygon fill="#00acea" points="448.64 336 448.64 369 448 369 267 369 267 270 267 269.34 299 269.34 299 270 299 336 448 336 448.64 336"></polygon><polygon fill="#00efd1" points="141.24 258.04 141.24 150.79 141.24 139.48 166.03 139.48 166.16 139.41 183.56 173.29 416.45 173.29 416.45 269.34 299 269.34 267 269.34 141.24 269.34 141.24 258.04"></polygon><polygon fill="#00acea" points="141.24 150.79 141.24 258.04 76.23 258.04 76.23 245.19 76.23 163.63 76.23 150.79 141.24 150.79"></polygon><rect width="46.14" height="81.56" x="30.09" y="163.63" fill="#00efd1"></rect><path fill="#083863" d="M481.91,61H129.9a7.91,7.91,0,0,0-6.828,3.731,7.456,7.456,0,0,0-.289,7.533L153.1,131H141.24a8.631,8.631,0,0,0-8.24,8.48V143H76.23A8.024,8.024,0,0,0,68,150.79V156H30.09c-4.419,0-8.09,3.211-8.09,7.63v81.56A7.917,7.917,0,0,0,30.09,253H68v5.04A8.166,8.166,0,0,0,76.23,266H133v3.34c0,4.418,3.822,7.66,8.24,7.66H259v92a8,8,0,0,0,8,8H441v66.2a7.531,7.531,0,0,0,7.64,7.8h32.2a7.97,7.97,0,0,0,8.16-7.8V261.29a8.39,8.39,0,0,0-8.16-8.29h-32.2c-4.418,0-7.64,3.872-7.64,8.29V328H307V277H416.45a7.342,7.342,0,0,0,7.55-7.66V181h57.91a7.835,7.835,0,0,0,8.09-7.71V68.8A7.908,7.908,0,0,0,481.91,61ZM38,237V172H68v65Zm419,32h16V435H457ZM84,250V159h49v91Zm215,94H441v17H275V277h16v59A8,8,0,0,0,299,344Zm109-83H149V147h12.312l15.132,29.56A8.088,8.088,0,0,0,183.56,181H408Zm66-96H188.445l-15.169-29.39v.173L143,77H474Z"></path></svg>